<?xml version="1.0" encoding="UTF-8" standalone="no"?>
<svg
   xmlns:dc="http://purl.org/dc/elements/1.1/"
   xmlns:cc="http://creativecommons.org/ns#"
   xmlns:rdf="http://www.w3.org/1999/02/22-rdf-syntax-ns#"
   xmlns:svg="http://www.w3.org/2000/svg"
   xmlns="http://www.w3.org/2000/svg"
   viewBox="0 0 549.33331 549.33331"
   height="549.33331"
   width="549.33331"
   xml:space="preserve"
   id="svg2"
   version="1.1"><metadata
     id="metadata8"><rdf:RDF><cc:Work
         rdf:about=""><dc:format>image/svg+xml</dc:format><dc:type
           rdf:resource="http://purl.org/dc/dcmitype/StillImage" /></cc:Work></rdf:RDF></metadata><defs
     id="defs6"><clipPath
       id="clipPath22"
       clipPathUnits="userSpaceOnUse"><path
         id="path20"
         d="M 0.601563,0 H 4115.95 V 4115.96 H 0.601563 Z" /></clipPath><clipPath
       id="clipPath36"
       clipPathUnits="userSpaceOnUse"><path
         id="path34"
         d="M 0.601563,0 H 4115.95 V 4115.96 H 0.601563 Z" /></clipPath></defs><g
     transform="matrix(1.3333333,0,0,-1.3333333,0,549.33333)"
     id="g10"><g
       transform="scale(0.1)"
       id="g12"><path
         id="path14"
         style="fill:#ffffff;fill-opacity:1;fill-rule:nonzero;stroke:none"
         d="m 40,2057.98 c 0,1114.5 903.48,2017.98 2017.98,2017.98 1114.49,0 2017.97,-903.48 2017.97,-2017.98 C 4075.95,943.488 3172.47,40 2057.98,40 943.48,40 40,943.488 40,2057.98" /><g
         id="g16"><g
           clip-path="url(#clipPath22)"
           id="g18"><path
             id="path24"
             style="fill:none;stroke:#231f20;stroke-width:80;stroke-linecap:butt;stroke-linejoin:miter;stroke-miterlimit:4;stroke-dasharray:none;stroke-opacity:1"
             d="m 40,2057.98 c 0,1114.5 903.48,2017.98 2017.98,2017.98 1114.49,0 2017.97,-903.48 2017.97,-2017.98 C 4075.95,943.488 3172.47,40 2057.98,40 943.48,40 40,943.488 40,2057.98 Z" /></g></g><path
         id="path26"
         style="fill:#231f20;fill-opacity:1;fill-rule:evenodd;stroke:none"
         d="m 2455.56,3191.67 c -89.94,34.5 -185,58.68 -283.76,70.99 -335.01,-150.04 -619.82,-358.49 -812.83,-662.03 -61,-95.93 -132.5,-213.8 -135,-345 25.38,-32.13 94.64,-20.36 135,-37.5 3.59,31.24 -29.36,37.01 -30,82.5 -0.66,47.34 55.44,112.44 90,165 226.79,344.87 601.1,622.47 1036.59,726.04" /><path
         id="path28"
         style="fill:#231f20;fill-opacity:1;fill-rule:evenodd;stroke:none"
         d="m 1913.97,2360.63 c 0.12,22.39 19.5,25.51 22.51,45 78.14,-86.86 231.74,38.68 135,120 11.77,18.23 31.9,28.09 60,30 107.33,-141.73 -93.52,-300.91 -217.51,-195 z m 889.62,625.51 c -195.2,-34.81 -333.22,-141.9 -477.11,-228.01 -9.66,40.35 -7.88,92.13 -37.5,112.5 -123.74,-106.27 -226.5,-233.5 -337.5,-352.5 49.73,155.28 188,286.99 300,405 -121.66,-66.74 -234.86,-131.08 -322.51,-232.5 -85.41,-98.84 -123.32,-234.34 -210,-337.5 -12.4,-10.2 -43.75,6.12 -75,0 -13.05,-38.05 32.56,-17.44 30,-45 -42.45,-35.05 -100.83,-54.17 -157.5,-75 99.78,-29.4 226.18,-3.13 307.5,30 225.37,-86.02 403.96,86.62 585.01,165 222.51,96.34 504.88,135.6 759.97,28.98 40.89,-143.42 75.9,-314.55 57.53,-493.97 -15.94,-26.17 -46.72,28.86 -67.5,45 -69.82,54.15 -170.23,104.77 -285,119.99 32.42,-39.25 95.15,-59.46 142.5,-104.99 51.54,-49.6 163.51,-197.27 165,-292.5 1.03,-66.45 -65.54,-195.97 -97.5,-255 -42.67,-78.79 -102.16,-142.63 -142.5,-210 -29.11,318.69 -55.89,600.23 -240,765 -205.36,183.76 -641.86,130.25 -870.01,-15 -11.97,-32.69 26.06,-27.14 7.5,-45 -187.1,-150.4 -371.15,-303.85 -450,-562.5 -186.39,111.44 -243.42,514.29 -127.5,749.99 -73.61,-71.89 -144.47,-205.25 -157.5,-344.99 -26.78,-287.47 162.74,-493.59 315,-615 50.95,101.68 76.49,210.03 127.5,307.5 47.6,90.93 108.32,173.07 180,247.5 137.44,142.66 315.88,283.04 577.51,285 130.2,0.96 254.58,-54.11 322.5,-127.5 171.44,-185.28 121.81,-598.6 45,-877.5 -53.75,-31.26 -112.81,-57.199 -165,-89.999 63.1,153.859 151.93,411.809 97.5,659.999 -6.19,-256.15 -136.52,-460.45 -285,-614.999 -80.03,-83.301 -148.52,-154.672 -300,-150 39.93,37.711 86.54,68.691 127.5,105 121.31,107.539 230.47,242.129 300,412.499 -52.96,-39.51 -84.38,-101.11 -135,-150 -141.41,-136.58 -361.43,-264.589 -615.01,-284.999 -63.41,-5.11 -122.97,5.488 -178.08,24.75 152.89,-69.2 322.64,-107.731 501.39,-107.731 672.26,0 1217.22,544.96 1217.22,1217.22 0,211.05 -53.74,409.54 -148.25,582.58 -38.62,-10.1 -82.5,12.48 -117.27,15.67 -263.77,24.16 -487.38,-74.48 -645,-172.5 58.8,101.19 145.55,174.45 232.5,247.5 -116.66,-8.34 -183.45,-66.55 -262.5,-112.5 49.18,96.86 163.36,138.86 270,180 106.2,40.98 235.89,74.68 375.7,53.45 -42.48,49.29 -88.83,95.13 -138.59,137.06" /><g
         id="g30"><g
           clip-path="url(#clipPath36)"
           id="g32"><path
             id="path38"
             style="fill:none;stroke:#00a650;stroke-width:700;stroke-linecap:butt;stroke-linejoin:miter;stroke-miterlimit:4;stroke-dasharray:none;stroke-opacity:1"
             d="m 534.551,2057.98 c 0,841.37 682.059,1523.42 1523.419,1523.42 841.36,0 1523.43,-682.05 1523.43,-1523.42 0,-841.36 -682.07,-1523.421 -1523.43,-1523.421 -841.36,0 -1523.419,682.061 -1523.419,1523.421 z" /></g></g><path
         id="path40"
         style="fill:#ffffff;fill-opacity:1;fill-rule:evenodd;stroke:none"
         d="m 525,1877.7 c -1.172,-1.43 -1.98,-3.2 -4.02,-3.76 -2.191,-5.77 -3.21,-12.67 -3.878,-19.93 -1.321,-1.6 -0.891,-3.64 -1.512,-5.61 -0.36,-1.13 -1.289,-2.18 -1.531,-3.44 -0.707,-3.65 0.5,-7.8 0.101,-12.43 -0.101,-0.83 -0.769,-1.1 -0.922,-1.86 -0.359,-13.11 -5.898,-21.16 -5.316,-35.18 0.527,-0.61 1.367,-0.91 1.566,-1.85 0.012,-2.08 0.032,-4.15 0.051,-6.22 -0.43,-0.92 -1.789,-0.91 -1.539,-2.5 10.109,-0.39 22.449,-0.29 32.641,-0.05 1.449,0.03 3.281,-0.54 4.347,0.64 0.051,1.3 -1.168,1.32 -1.566,2.17 -0.301,2.09 -0.422,4.37 -0.363,6.83 1.351,-0.19 0.941,1.34 1.851,1.57 -0.019,2.28 -0.039,4.56 -0.058,6.84 -0.75,1.22 -1.172,2.78 -0.973,4.97 -1.039,1.87 -1.34,-5.59 -1.527,-2.86 -0.942,1.77 -1.641,13.85 -1.68,16.51 -0.352,0.49 -1.024,0.64 -0.942,1.55 -0.601,3.16 -0.359,7.17 -1.64,9.63 -0.031,4.25 -0.059,8.49 -0.102,12.74 -1.5,1.29 -1.047,4.58 -2.527,5.89 -1.16,7.28 -2.32,14.57 -4.199,21.12 -1.024,0.53 -2.024,1.09 -3.133,1.53 -0.207,0.99 -1.219,1.84 -1.57,2.16 -0.539,0.47 0.691,2.33 -0.95,1.54 -0.199,0 -0.41,0 -0.609,0 z m 8.789,107.33 c 0.152,-0.8 2.191,0.33 1.57,-1.23 3.34,0.36 4.129,-1.86 7.469,-1.49 0.66,0.14 0.594,-0.44 0.633,-0.93 3.23,0.37 4.07,-1.6 7.16,-1.5 0.559,-1.01 1.578,-1.53 3.117,-1.54 0.481,-0.87 0.922,-1.77 2.5,-1.53 0.481,-1.18 1.321,-2 2.524,-2.47 0.789,-1.9 1.508,-3.89 3.136,-4.94 0.454,-3.94 2.864,-5.87 3.18,-9.93 0.063,-0.37 0.57,-0.26 0.942,-0.3 -0.481,-3 1.878,-3.11 1.601,-5.9 1.938,-2 2.09,-5.81 4.098,-7.74 0.011,-0.63 0.011,-1.25 0.019,-1.86 1.481,-1.73 1.883,-4.57 3.153,-6.51 0.007,-0.83 0.019,-1.66 0.019,-2.48 0.102,-0.64 0.641,-0.83 0.949,-1.23 -0.129,-1.81 0.02,-3.32 0.961,-4.05 0.25,-4.45 1.039,-8.35 0.731,-13.36 1.211,-0.78 1.64,-5.48 0.051,-6.21 -0.25,-3.26 0.878,-3.01 0.039,-5.3 2.347,-2.57 4.109,-6.84 3.199,-11.78 -2.469,-1.99 -5.399,-3.54 -10.231,-3.2 -0.597,1.5 -0.89,3.28 -3.14,3.09 -0.098,0.85 -0.41,1.45 -0.938,1.86 -0.293,2.66 1.27,3.48 1.508,5.6 -0.148,0.66 0.441,0.62 0.922,0.64 -1.082,1.41 -0.609,4.41 -1.902,5.58 -0.008,0.94 -0.02,1.86 -0.028,2.79 -2.011,2.76 -2.441,7.12 -4.109,10.23 0.359,3.2 -1.121,4.51 -0.692,7.78 -1.25,1.78 -0.921,4.81 -1.609,7.76 -1.742,1.16 -2.723,4.76 -3.781,5.55 -0.68,-0.05 -0.149,1.11 -0.328,1.57 -1.711,1.07 -2.153,3.43 -3.453,4.94 -3.368,-2.03 -2.789,-7.95 -4.579,-11.54 0.36,-5.18 -0.269,-9.41 -0.511,-13.99 -0.938,-1.03 -1.098,-2.83 -1.52,-4.37 1.473,-1.24 1.84,-3.57 3.153,-4.95 -0.204,-5.53 1.687,-8.94 1.66,-14.28 -0.403,-0.9 0.488,-0.16 0.629,-0.63 0.347,-1.14 -0.082,-3.25 0.347,-4.96 0.301,-1.2 1.071,-4.49 0.684,-7.16 1.18,-0.98 0.988,-3.37 0.976,-5.58 -0.808,-0.24 -0.589,-1.49 -1.546,-1.57 0.019,-8.75 1.199,-16.33 0.82,-25.49 -0.274,-1 1.027,-0.42 0.949,-1.24 0.149,-4.86 1.27,-8.73 3.199,-11.79 -0.422,-6.74 0.731,-13.67 0.16,-20.19 -0.058,-0.69 -0.5,-0.44 -0.621,-0.95 -0.3,-1.27 0.102,-3.07 0.032,-4.66 -0.141,-4.04 -0.582,-8.83 0.718,-11.18 0.012,-1.66 0.02,-3.32 0.039,-4.98 0.622,-1.68 2.493,-2.06 2.524,-4.33 2.797,0.02 3.058,-2.53 4.687,-3.7 0.051,-1.8 -0.558,-2.93 -1.531,-3.74 2.352,-1.1 5.184,-0.58 7.781,-0.56 15.981,0.13 33.063,0.26 49.743,0.39 3.968,0.03 7.476,0.47 9.648,-0.86 0.461,-0.99 0.32,-2.61 0.352,-4.04 -0.961,-1.53 -1.352,-3.61 -1.512,-5.92 -0.602,-0.23 -0.211,-0.93 -0.942,-0.32 0.18,-4.39 -2.699,-5.76 -3.027,-9.66 -0.312,0 -0.621,-0.01 -0.941,-0.01 -1.192,-5.19 -5.289,-7.54 -7.051,-12.18 -1.957,-0.95 -3.078,-2.72 -4.008,-4.69 -1.269,0.49 -1,-1.06 -1.543,-1.57 -0.449,-0.42 -2.656,-0.84 -2.457,-2.51 -3.351,-1.12 -4.48,-4.43 -7.73,-5.64 -0.27,-0.58 -0.789,-0.88 -0.922,-1.56 -2.758,-0.48 -3.617,-2.83 -6.188,-3.48 -0.242,-0.92 0.617,0.08 -0.929,-0.63 -0.59,-0.27 -1.5,-1.29 -2.473,-1.88 -1.199,-0.73 -2.867,-0.79 -3.09,-2.21 -2.461,0.36 -2.5,-1.65 -4.66,-1.59 -0.359,-0.05 -0.25,-0.57 -0.301,-0.93 -1.348,-0.22 -2.906,-0.23 -3.09,-1.59 -5.328,-1.02 -8.648,-4.03 -14.269,-4.76 -0.449,-0.07 -0.098,-0.93 -0.617,-0.94 -1.743,0.17 -3,-0.13 -3.723,-0.97 -23.418,-0.17 -46.828,-0.36 -70.258,-0.55 -0.73,0.72 -1.75,1.15 -3.422,0.91 -1.277,0.9 -2.961,1.39 -4.988,1.52 -0.66,-0.15 -0.602,0.45 -0.633,0.92 -3.098,-0.43 -3.367,2.02 -6.539,1.51 0.191,1.24 -1.84,0.22 -1.57,1.53 -2.219,0.48 -4.309,1.07 -5.617,2.45 -3.34,0.05 -3.821,3 -7.172,3.05 -0.051,1.63 -2.711,0.6 -2.508,2.47 -0.524,0 -1.031,-0.01 -1.563,-0.01 -1.597,2.44 -5.109,2.95 -6.558,5.56 -0.531,-0.01 -1.039,-0.01 -1.563,-0.02 -0.609,2.3 -3.297,2.5 -4.078,4.63 -0.738,-0.14 -0.68,0.56 -1.551,0.3 -0.757,1.31 -1.597,2.56 -3.129,3.08 -0.671,2.25 -2.378,3.43 -4.089,4.63 -2,4.33 -5.7,6.96 -7.243,11.75 -0.046,0.37 -0.57,0.27 -0.929,0.31 -0.028,1.55 -0.571,2.55 -1.578,3.1 0,0.51 -0.012,1.04 -0.012,1.55 -1.93,2.75 -2.59,6.78 -4.117,9.92 0.508,2.04 -0.942,3.55 -0.66,4.98 0.187,0.96 1.289,0.88 1.218,2.17 9.02,1.16 23.36,0.81 34.2,0.9 10.761,0.09 21.48,0.17 31.71,0.25 0.442,2.02 -0.808,2.32 -0.66,4.03 1.219,1.68 1.981,3.81 4.641,4.08 -0.09,2.25 1.289,3.04 2.449,4.06 0.43,7.18 0.719,14.52 0.449,22.39 0.172,0.69 -0.597,0.45 -0.629,0.92 0.282,6.39 -1.031,12.57 -0.152,18.34 0.094,0.54 0.332,1.85 0.613,2.5 0.098,0.25 0.887,0.54 0.93,0.63 0.731,1.99 0.438,4.85 1.5,6.23 0,1.03 -0.012,2.07 -0.019,3.11 -0.063,0.88 0.918,0.74 0.91,1.56 -0.543,8.96 0.679,16.2 0.429,24.87 -0.652,0.68 -1.089,1.61 -2.191,1.85 -0.441,2.92 1.02,3.94 0.57,6.85 2.11,5.12 1.641,12.78 3.91,17.76 0.059,5.18 0.731,9.75 3,12.76 -0.289,1.68 -0.539,3.42 -1.582,4.35 -1.027,9.74 -0.418,19.56 -5.187,25.76 -1.242,-0.21 -0.461,-2.42 -2.152,-2.21 -0.258,-1.99 -1.149,-3.37 -2.45,-4.37 0,-0.5 0.012,-1.03 0.012,-1.55 -1.812,-0.48 -1.199,-3.35 -3.082,-3.75 -0.367,-3.94 -1.66,-7 -1.469,-11.51 0.09,-0.91 -0.57,-1.09 -0.91,-1.56 -0.101,-1.06 0.141,-2.12 0.02,-3.11 -0.078,-0.68 -0.461,-0.43 -0.621,-0.95 -0.2,-0.65 0.171,-1.69 0.019,-2.17 -0.117,-0.39 -0.687,-0.68 -0.918,-1.25 -0.109,-0.26 0.11,-0.66 0.012,-0.92 -0.152,-0.38 -0.594,-0.96 -0.934,-1.89 -0.047,-0.15 0.141,-0.82 0.012,-0.93 -0.539,-0.48 -0.48,-0.49 -0.91,-1.87 -0.328,-1.01 -0.262,-1.48 -0.602,-3.12 -0.179,-0.85 -0.968,-2.55 -0.59,-4.66 0.051,-0.27 0.391,-1.45 0.641,-1.86 0.16,-0.25 0.852,-0.4 0.941,-0.61 0.231,-0.56 -0.128,-1.36 0.008,-1.88 0.274,-0.96 1.512,-1.53 0.961,-2.79 -0.668,-1.08 -1.789,-1.72 -3.09,-2.19 -0.211,-1.03 -0.879,-1.6 -1.23,-2.5 -4.141,-0.34 -6.578,1.06 -9.34,2.1 -1.668,2.65 -0.73,6.7 -0.078,9.64 0.891,0.27 1.039,1.24 1.539,1.87 -0.051,1.45 -0.25,3.23 -0.961,3.12 0.383,2.24 1.031,4.35 0.57,6.52 -0.16,0.77 -0.879,1.48 -0.64,3.11 0.082,0.55 0.812,0.82 0.922,1.56 0.5,3.44 -0.192,7.49 0.531,11.51 0.129,0.7 0.656,0.99 0.918,1.57 0.359,1.99 0.019,5.17 0.879,6.52 0.09,0.13 0.601,0.27 0.621,0.31 0.449,1.07 0.23,2.5 0.601,3.44 0.329,0.87 0.649,0.7 1.219,2.18 0.219,0.56 0.488,0.89 0.61,1.25 0.46,1.31 0.218,3 1.539,3.12 -0.008,0.73 -0.008,1.45 -0.02,2.18 1.231,-0.19 0.223,1.84 1.539,1.56 0.152,3.34 2.32,4.72 2.422,8.11 1.328,-0.18 0.219,2.04 1.551,1.87 -0.422,1.7 1.027,3.75 1.508,4.99 0.101,0.26 -0.129,0.69 -0.008,0.93 0.258,0.53 0.789,0.53 0.918,0.95 0.39,1.12 0.332,1.71 0.922,2.8 0.461,0.84 0.929,1.46 1.531,2.5 0.18,0.28 0.566,1.18 0.617,1.24 0.77,0.98 2.359,1.11 2.461,2.51 0.422,0 0.84,0.01 1.25,0.01 0.102,0.83 1.148,0.72 1.23,1.56 3.532,0.85 5.661,3.06 9.918,3.2 0.454,0.07 0.114,0.92 0.622,0.93 2.199,0.03 2.968,0.23 4.96,0.96 0.329,0.14 0.231,0.55 0.622,0.65 0.687,0.13 1.398,-0.18 1.859,0.01 0.617,0.23 0.859,1.74 1.859,0.94 -0.789,3.89 -2.89,6.46 -3.191,10.86 -0.07,0.44 -0.93,0.11 -0.938,0.62 0.129,2.2 -0.929,3.22 -1.589,4.64 0.238,2.6 -0.383,5.07 -0.051,7.14 0.289,1.8 1.668,3.03 1.519,4.69 1.52,0.3 2.141,1.89 3.078,2.81 0.942,0.94 2.262,1.49 2.782,2.83 1.851,0.13 2.199,1.75 3.711,2.2 2.75,-0.87 6.48,-0.73 9.648,-1.16 1.231,-0.94 2.449,-1.88 4.063,-2.46 0.578,-1.81 1.597,-3.16 3.136,-4.01 0.043,-3.34 3.133,-6.88 1.633,-9.94 -0.359,-0.74 -0.18,-1.71 -0.59,-3.11 -0.133,-0.43 -0.801,-0.59 -0.929,-0.94 -0.161,-0.46 0.089,-1.08 0.007,-1.55 -0.109,-0.66 -0.468,-0.45 -0.609,-0.95 -0.109,-0.36 0.16,-0.91 0.012,-1.25 -0.102,-0.21 -0.91,-0.54 -0.934,-0.61 -0.277,-0.81 0.242,-1.71 0.024,-2.49 0.277,0.98 -1.133,-2.06 -0.922,-1.88 -1,-0.89 -1.129,-3.75 -2.141,-4.99" /><path
         id="path42"
         style="fill:#ffffff;fill-opacity:1;fill-rule:evenodd;stroke:none"
         d="m 3576.42,1901.11 c -1.16,-1.42 -1.98,-3.19 -4.01,-3.75 -2.19,-5.78 -3.23,-12.67 -3.89,-19.94 -1.32,-1.6 -0.89,-3.64 -1.51,-5.6 -0.35,-1.13 -1.29,-2.18 -1.53,-3.44 -0.71,-3.65 0.5,-7.8 0.09,-12.43 -0.1,-0.83 -0.76,-1.1 -0.91,-1.87 -0.37,-13.1 -5.9,-21.15 -5.32,-35.17 0.54,-0.62 1.37,-0.91 1.57,-1.86 0.01,-2.08 0.03,-4.15 0.04,-6.22 -0.42,-0.92 -1.78,-0.91 -1.52,-2.5 10.11,-0.38 22.45,-0.28 32.65,-0.05 1.43,0.03 3.26,-0.54 4.33,0.65 0.05,1.3 -1.17,1.31 -1.57,2.17 -0.3,2.09 -0.42,4.37 -0.36,6.83 1.35,-0.19 0.94,1.33 1.85,1.57 -0.02,2.28 -0.04,4.56 -0.06,6.84 -0.75,1.22 -1.18,2.77 -0.96,4.96 -1.05,1.88 -1.34,-5.59 -1.55,-2.85 -0.92,1.76 -1.63,13.85 -1.67,16.5 -0.35,0.5 -1.01,0.65 -0.94,1.56 -0.61,3.16 -0.35,7.16 -1.64,9.63 -0.03,4.24 -0.06,8.49 -0.1,12.74 -1.49,1.29 -1.06,4.58 -2.53,5.89 -1.16,7.27 -2.31,14.57 -4.21,21.12 -1,0.53 -2.01,1.09 -3.11,1.53 -0.23,0.99 -1.23,1.84 -1.58,2.15 -0.53,0.47 0.69,2.33 -0.94,1.55 -0.21,0 -0.42,0 -0.62,-0.01 z m 35.18,-84.6 c 2.79,0.03 3.04,-2.52 4.67,-3.69 0.05,-1.8 -0.55,-2.93 -1.51,-3.74 2.34,-1.1 5.18,-0.58 7.78,-0.56 15.97,0.13 33.06,0.26 49.73,0.39 3.97,0.03 7.47,0.47 9.65,-0.86 0.46,-1 0.31,-2.61 0.34,-4.04 -0.94,-1.54 -1.34,-3.62 -1.5,-5.92 -0.6,-0.25 -0.21,-0.93 -0.94,-0.32 0.18,-4.39 -2.7,-5.77 -3.03,-9.66 -0.31,-0.01 -0.62,-0.01 -0.94,-0.01 -1.19,-5.2 -5.29,-7.54 -7.05,-12.18 -1.95,-0.96 -3.08,-2.72 -4,-4.7 -1.27,0.5 -1,-1.05 -1.54,-1.56 -0.45,-0.43 -2.68,-0.84 -2.46,-2.51 -3.35,-1.12 -4.49,-4.43 -7.74,-5.65 -0.26,-0.58 -0.79,-0.87 -0.92,-1.56 -2.75,-0.47 -3.61,-2.82 -6.2,-3.47 -0.23,-0.92 0.63,0.08 -0.92,-0.64 -0.58,-0.26 -1.49,-1.29 -2.48,-1.87 -1.19,-0.73 -2.86,-0.79 -3.08,-2.21 -2.45,0.36 -2.49,-1.65 -4.66,-1.59 -0.36,-0.05 -0.25,-0.57 -0.29,-0.93 -1.35,-0.23 -2.91,-0.23 -3.11,-1.59 -5.31,-1.03 -8.64,-4.03 -14.27,-4.77 -0.44,-0.07 -0.08,-0.92 -0.61,-0.93 -1.74,0.17 -3,-0.13 -3.72,-0.97 -23.42,-0.19 -46.84,-0.36 -70.26,-0.55 -0.73,0.72 -1.75,1.14 -3.42,0.91 -1.27,0.9 -2.96,1.39 -4.99,1.51 -0.67,-0.14 -0.59,0.45 -0.63,0.93 -3.09,-0.43 -3.36,2.01 -6.54,1.5 0.18,1.25 -1.84,0.23 -1.56,1.54 -2.23,0.47 -4.32,1.06 -5.62,2.45 -3.34,0.05 -3.84,3 -7.18,3.05 -0.05,1.63 -2.7,0.59 -2.51,2.47 -0.51,-0.01 -1.03,-0.01 -1.55,-0.01 -1.61,2.43 -5.12,2.95 -6.56,5.55 -0.53,0 -1.05,0 -1.56,-0.01 -0.61,2.3 -3.31,2.5 -4.09,4.62 -0.74,-0.13 -0.67,0.56 -1.55,0.31 -0.76,1.31 -1.59,2.55 -3.14,3.07 -0.66,2.26 -2.37,3.44 -4.08,4.64 -2,4.33 -5.7,6.95 -7.24,11.75 -0.04,0.37 -0.57,0.26 -0.93,0.3 -0.02,1.55 -0.57,2.56 -1.58,3.11 0,0.51 0,1.03 -0.01,1.55 -1.94,2.75 -2.59,6.78 -4.12,9.91 0.51,2.04 -0.94,3.56 -0.67,4.97 0.21,0.97 1.3,0.89 1.24,2.18 9.02,1.16 23.35,0.82 34.19,0.91 10.76,0.08 21.49,0.17 31.71,0.24 0.44,2.03 -0.81,2.32 -0.65,4.04 1.21,1.68 1.98,3.81 4.63,4.07 -0.08,2.25 1.29,3.04 2.45,4.06 0.44,7.19 0.72,14.52 0.45,22.39 0.17,0.7 -0.6,0.44 -0.63,0.93 0.28,6.38 -1.03,12.56 -0.15,18.34 0.08,0.54 0.33,1.84 0.61,2.5 0.11,0.25 0.89,0.53 0.93,0.62 0.73,2 0.44,4.86 1.5,6.24 -0.01,1.03 -0.01,2.07 -0.02,3.1 -0.06,0.89 0.93,0.74 0.92,1.56 -0.55,8.97 0.66,16.21 0.43,24.88 -0.66,0.68 -1.1,1.61 -2.2,1.84 -0.44,2.92 1.02,3.95 0.58,6.86 2.11,5.12 1.63,12.77 3.9,17.75 0.05,5.19 0.73,9.75 3,12.77 -0.29,1.68 -0.54,3.42 -1.58,4.34 -1.02,9.75 -0.42,19.56 -5.18,25.76 -1.24,-0.2 -0.47,-2.42 -2.15,-2.2 -0.28,-1.99 -1.16,-3.37 -2.46,-4.37 0.01,-0.51 0.01,-1.03 0.02,-1.55 -1.82,-0.48 -1.22,-3.35 -3.09,-3.75 -0.37,-3.96 -1.66,-7.01 -1.46,-11.52 0.07,-0.91 -0.58,-1.08 -0.92,-1.56 -0.1,-1.05 0.14,-2.12 0.02,-3.1 -0.08,-0.69 -0.45,-0.44 -0.62,-0.95 -0.19,-0.65 0.17,-1.7 0.02,-2.18 -0.12,-0.38 -0.69,-0.67 -0.92,-1.25 -0.11,-0.26 0.11,-0.65 0.01,-0.92 -0.15,-0.39 -0.59,-0.95 -0.92,-1.88 -0.06,-0.16 0.13,-0.82 0,-0.93 -0.54,-0.5 -0.47,-0.51 -0.91,-1.87 -0.33,-1.01 -0.26,-1.49 -0.6,-3.12 -0.17,-0.86 -0.97,-2.56 -0.58,-4.67 0.04,-0.26 0.39,-1.45 0.63,-1.85 0.16,-0.25 0.86,-0.4 0.94,-0.62 0.23,-0.56 -0.13,-1.35 0.01,-1.87 0.27,-0.96 1.51,-1.54 0.95,-2.79 -0.66,-1.08 -1.77,-1.72 -3.08,-2.19 -0.21,-1.05 -0.88,-1.6 -1.23,-2.5 -4.14,-0.34 -6.57,1.05 -9.35,2.1 -1.66,2.64 -0.72,6.7 -0.07,9.64 0.89,0.27 1.04,1.24 1.54,1.87 -0.05,1.45 -0.24,3.22 -0.95,3.12 0.38,2.24 1.03,4.34 0.56,6.52 -0.16,0.77 -0.87,1.47 -0.64,3.1 0.09,0.56 0.81,0.83 0.92,1.57 0.5,3.44 -0.19,7.49 0.54,11.51 0.12,0.7 0.65,0.99 0.91,1.55 0.37,2.01 0.02,5.19 0.88,6.54 0.09,0.12 0.6,0.27 0.63,0.31 0.45,1.06 0.22,2.5 0.58,3.44 0.35,0.86 0.67,0.7 1.23,2.18 0.22,0.55 0.49,0.88 0.62,1.25 0.45,1.3 0.22,2.99 1.53,3.12 -0.01,0.72 -0.01,1.45 -0.02,2.18 1.23,-0.2 0.22,1.83 1.55,1.56 0.14,3.34 2.3,4.72 2.41,8.11 1.34,-0.18 0.22,2.04 1.55,1.86 -0.43,1.71 1.03,3.76 1.52,5 0.1,0.26 -0.14,0.68 -0.01,0.93 0.26,0.53 0.79,0.53 0.91,0.94 0.38,1.13 0.33,1.72 0.92,2.81 0.46,0.83 0.93,1.45 1.53,2.49 0.17,0.28 0.57,1.19 0.62,1.25 0.77,0.97 2.36,1.11 2.46,2.51 0.42,0 0.83,0 1.25,0.01 0.1,0.83 1.15,0.72 1.23,1.56 3.53,0.85 5.66,3.06 9.92,3.19 0.44,0.07 0.1,0.93 0.61,0.94 2.21,0.03 2.98,0.23 4.98,0.96 0.33,0.13 0.21,0.54 0.61,0.64 0.69,0.14 1.4,-0.17 1.86,0.01 0.62,0.24 0.87,1.75 1.87,0.95 -0.81,3.89 -2.91,6.45 -3.2,10.86 -0.07,0.44 -0.93,0.1 -0.94,0.61 0.13,2.21 -0.93,3.23 -1.59,4.64 0.24,2.6 -0.39,5.08 -0.06,7.15 0.3,1.79 1.68,3.02 1.53,4.68 1.52,0.31 2.15,1.89 3.08,2.82 0.93,0.94 2.27,1.49 2.78,2.82 1.85,0.14 2.2,1.75 3.71,2.21 2.75,-0.87 6.48,-0.73 9.66,-1.16 1.23,-0.94 2.45,-1.88 4.06,-2.46 0.57,-1.82 1.6,-3.17 3.13,-4.01 0.05,-3.34 3.13,-6.88 1.63,-9.95 -0.35,-0.73 -0.17,-1.71 -0.59,-3.11 -0.13,-0.42 -0.8,-0.58 -0.93,-0.93 -0.15,-0.47 0.09,-1.08 0.01,-1.55 -0.11,-0.67 -0.46,-0.45 -0.61,-0.95 -0.11,-0.36 0.16,-0.91 0,-1.25 -0.09,-0.21 -0.89,-0.56 -0.92,-0.62 -0.28,-0.8 0.24,-1.7 0.02,-2.49 0.28,0.99 -1.13,-2.06 -0.92,-1.87 -1,-0.89 -1.12,-3.75 -2.14,-4.99 0.15,-0.8 2.19,0.33 1.57,-1.23 3.34,0.36 4.13,-1.88 7.47,-1.49 0.67,0.14 0.6,-0.44 0.63,-0.93 3.24,0.37 4.08,-1.6 7.17,-1.52 0.55,-0.99 1.58,-1.51 3.12,-1.52 0.47,-0.87 0.91,-1.78 2.49,-1.53 0.49,-1.18 1.32,-2 2.52,-2.47 0.78,-1.91 1.51,-3.89 3.15,-4.95 0.43,-3.93 2.86,-5.86 3.18,-9.93 0.05,-0.36 0.57,-0.26 0.94,-0.29 -0.48,-3 1.86,-3.11 1.59,-5.9 1.93,-2.01 2.09,-5.81 4.1,-7.74 0,-0.64 0.01,-1.25 0.02,-1.87 1.48,-1.74 1.88,-4.56 3.15,-6.5 0,-0.83 0.01,-1.66 0.02,-2.48 0.1,-0.65 0.63,-0.83 0.95,-1.24 -0.13,-1.81 0.02,-3.32 0.97,-4.04 0.24,-4.46 1.03,-8.35 0.73,-13.36 1.19,-0.79 1.62,-5.48 0.05,-6.21 -0.26,-3.27 0.87,-3.02 0.04,-5.3 2.34,-2.58 4.11,-6.84 3.19,-11.79 -2.46,-1.99 -5.4,-3.53 -10.22,-3.19 -0.6,1.5 -0.9,3.27 -3.16,3.09 -0.08,0.85 -0.4,1.45 -0.93,1.86 -0.29,2.66 1.26,3.48 1.5,5.6 -0.14,0.66 0.45,0.6 0.94,0.63 -1.09,1.42 -0.61,4.41 -1.92,5.59 0,0.93 -0.01,1.85 -0.02,2.79 -2.02,2.76 -2.44,7.11 -4.11,10.23 0.36,3.19 -1.11,4.51 -0.68,7.78 -1.26,1.78 -0.92,4.8 -1.63,7.75 -1.72,1.17 -2.71,4.77 -3.77,5.56 -0.68,-0.05 -0.15,1.1 -0.33,1.56 -1.7,1.08 -2.15,3.44 -3.45,4.94 -3.37,-2.04 -2.8,-7.94 -4.58,-11.53 0.36,-5.18 -0.26,-9.41 -0.51,-13.99 -0.94,-1.04 -1.09,-2.83 -1.51,-4.37 1.46,-1.24 1.83,-3.57 3.14,-4.96 -0.19,-5.53 1.69,-8.93 1.67,-14.28 -0.4,-0.89 0.48,-0.15 0.63,-0.62 0.35,-1.15 -0.09,-3.25 0.35,-4.97 0.29,-1.19 1.07,-4.48 0.66,-7.15 1.18,-0.99 1,-3.37 0.99,-5.59 -0.81,-0.23 -0.59,-1.48 -1.55,-1.57 0.02,-8.75 1.2,-16.33 0.82,-25.48 -0.27,-1 1.04,-0.42 0.95,-1.24 0.16,-4.86 1.28,-8.73 3.2,-11.79 -0.42,-6.74 0.73,-13.68 0.15,-20.2 -0.05,-0.69 -0.48,-0.43 -0.61,-0.94 -0.3,-1.28 0.09,-3.07 0.04,-4.67 -0.15,-4.03 -0.58,-8.83 0.71,-11.19" /><path
         id="path44"
         style="fill:#ffffff;fill-opacity:1;fill-rule:nonzero;stroke:none"
         d="m 618.531,2244.49 c 3.321,21.58 -5.801,56.91 -67.082,66.39 -61.277,9.47 -80.66,-21.46 -84,-43.05 -3.328,-21.58 5.813,-56.92 67.082,-66.4 61.27,-9.47 80.649,21.47 84,43.06 z m -219.672,33.95 c 12.93,83.62 81.68,130.22 165.692,117.22 84.008,-12.99 135.488,-78.16 122.57,-161.78 -12.93,-83.64 -81.68,-130.21 -165.699,-117.22 -84.012,12.98 -135.492,78.16 -122.563,161.78" /><path
         id="path46"
         style="fill:#ffffff;fill-opacity:1;fill-rule:nonzero;stroke:none"
         d="m 450.051,2491.81 29.129,80.71 194.781,-70.32 41.848,115.91 67.121,-24.23 -70.981,-196.61 -261.898,94.54" /><path
         id="path48"
         style="fill:#ffffff;fill-opacity:1;fill-rule:nonzero;stroke:none"
         d="m 774.512,2727.88 17.148,28.83 c 27.328,45.93 -5.89,74.77 -28.351,88.14 -15.09,8.98 -59.789,29.22 -91.5,-24.08 l -13.957,-23.47 z m -221.891,32.17 72,121.02 c 47.481,79.78 123.238,72.84 183.578,36.94 73.41,-43.69 96.871,-110.3 47.199,-193.78 l -63.418,-106.6 -239.359,142.42" /><path
         id="path50"
         style="fill:#ffffff;fill-opacity:1;fill-rule:nonzero;stroke:none"
         d="m 921.238,2978.49 c 5.231,-4.68 10.66,-7.97 15.742,-9.9 16.661,-6.55 31.75,5.05 42.43,16.95 9.36,10.46 20.199,29.56 4.801,43.35 -10.742,9.63 -21.723,3.23 -63.891,-23.38 -38.699,-24.49 -81.281,-53.89 -123.101,-16.42 -47.93,42.94 -31.848,102.37 6.402,145.07 40.34,45.01 93.129,69.45 145.231,25.91 l -54.133,-60.41 c -6.809,8.19 -15.149,9.39 -23.321,7.28 -8.457,-1.84 -16.418,-7.81 -22.148,-14.19 -7.801,-8.71 -18.23,-25.03 -6.609,-35.44 15.847,-12.11 45.589,14.65 80,36.71 34.429,22.04 74.097,38.85 112.149,4.76 54.02,-48.41 26.94,-113.69 -14.43,-159.87 -21.09,-23.53 -89.63,-83.07 -156.372,-24.31 l 57.25,63.89" /><path
         id="path52"
         style="fill:#ffffff;fill-opacity:1;fill-rule:nonzero;stroke:none"
         d="m 1248.61,3287.98 c 46.68,-61.5 35.84,-116.24 -31.87,-167.64 -67.71,-51.4 -123.65,-47.34 -170.34,14.15 l -103.271,136.06 68.341,51.87 91.71,-120.83 c 17.22,-22.69 38.67,-50.95 71.9,-25.72 32.31,24.52 10.85,52.79 -6.35,75.47 l -91.72,120.82 68.33,51.87 103.27,-136.05" /><path
         id="path54"
         style="fill:#ffffff;fill-opacity:1;fill-rule:nonzero;stroke:none"
         d="m 1389.14,3315.05 45.36,21.76 c 16.17,7.77 28.05,19.09 18.76,38.43 -7.09,14.77 -19.76,18.64 -38.05,9.87 l -48.53,-23.3 z m -44.9,93.53 40.79,19.58 c 16.17,7.77 24.18,17.23 16.42,33.4 -6.08,12.67 -18.83,12.18 -34.65,4.59 l -40.79,-19.59 z m -124.28,60.63 137.49,65.99 c 66.11,31.74 98.07,1.21 110.39,-24.46 12.16,-25.31 6.42,-44.94 -7.31,-64.09 26.21,3.08 55.92,-4.73 73.64,-41.66 24.14,-50.29 -6.98,-97.24 -51.28,-118.51 l -142.43,-68.35 -120.5,251.08" /><path
         id="path56"
         style="fill:#ffffff;fill-opacity:1;fill-rule:nonzero;stroke:none"
         d="m 1658.37,3420.18 48.81,12.28 c 17.4,4.38 31.29,13.11 26.05,33.91 -4,15.89 -15.64,22.21 -35.32,17.27 l -52.2,-13.15 z m -25.32,100.62 43.88,11.05 c 17.39,4.37 27.13,12.05 22.75,29.46 -3.43,13.62 -16.01,15.68 -33.04,11.39 l -43.88,-11.05 z m -109.7,84.21 147.91,37.24 c 71.11,17.9 96.34,-18.39 103.29,-46.01 6.86,-27.23 -2.67,-45.31 -19.96,-61.33 26.31,-2.23 53.86,-15.8 63.86,-55.53 13.62,-54.1 -26.24,-93.89 -73.9,-105.89 l -153.21,-38.57 -67.99,270.09" /><path
         id="path58"
         style="fill:#ffffff;fill-opacity:1;fill-rule:nonzero;stroke:none"
         d="m 2107.96,3518.43 c 3.47,-77.14 -36.55,-116.02 -121.46,-119.84 -84.92,-3.82 -128.65,31.29 -132.12,108.42 l -7.69,170.62 85.71,3.85 6.81,-151.53 c 1.28,-28.43 2.88,-63.88 44.56,-62 40.51,1.81 38.91,37.26 37.64,65.7 l -6.83,151.53 85.7,3.86 7.68,-170.61" /><path
         id="path60"
         style="fill:#ffffff;fill-opacity:1;fill-rule:nonzero;stroke:none"
         d="m 2239.08,3603.11 -77.19,11.31 10.33,70.62 239.3,-35.04 -10.33,-70.63 -77.19,11.3 -30.02,-204.93 -84.92,12.44 30.02,204.93" /><path
         id="path62"
         style="fill:#ffffff;fill-opacity:1;fill-rule:nonzero;stroke:none"
         d="m 2481.21,3632.42 217.92,-74.91 -23.2,-67.47 -136.8,47.02 -11.29,-32.82 124.28,-42.71 -21.56,-62.69 -124.27,42.71 -11.29,-32.81 140.87,-48.42 -23.18,-67.48 -221.99,76.3 90.51,263.28" /><path
         id="path64"
         style="fill:#ffffff;fill-opacity:1;fill-rule:nonzero;stroke:none"
         d="m 2784.8,3268.73 c 18.81,-11.11 55.01,-15.77 86.58,37.6 31.57,53.37 10.04,82.87 -8.76,93.98 -18.79,11.12 -55,15.78 -86.56,-37.6 -31.59,-53.37 -10.06,-82.86 8.74,-93.98 z m 113.16,191.34 c 72.85,-43.09 90.55,-124.24 47.27,-197.42 -43.28,-73.17 -122.93,-96.75 -195.77,-53.67 -72.84,43.09 -90.55,124.24 -47.26,197.42 43.27,73.17 122.92,96.75 195.76,53.67" /><path
         id="path66"
         style="fill:#ffffff;fill-opacity:1;fill-rule:nonzero;stroke:none"
         d="m 3235.74,3035.04 c 6.43,7.99 23.97,34.5 0.07,60.74 -27.06,29.7 -64.56,12.95 -92.24,-12.27 -27.7,-25.22 -47.85,-61 -20.79,-90.7 19.43,-21.33 42.05,-16.03 64.78,-2.18 l 56.74,-62.29 c -41.52,-37.82 -116.38,-44.27 -171.28,15.99 -60.67,66.61 -48.08,147.19 12.76,202.62 64.87,59.09 145.13,57.3 202.93,-6.14 51.2,-56.78 49.87,-114.97 3.25,-167.47 l -56.22,61.7" /><path
         id="path68"
         style="fill:#ffffff;fill-opacity:1;fill-rule:nonzero;stroke:none"
         d="m 3412.92,2979.5 45.05,-73.04 -176.3,-108.71 64.69,-104.92 -60.75,-37.47 -109.75,177.96 237.06,146.18" /><path
         id="path70"
         style="fill:#ffffff;fill-opacity:1;fill-rule:nonzero;stroke:none"
         d="m 3489.1,2435.66 c -72.15,-27.56 -121.66,-1.78 -152,77.64 -30.33,79.42 -10.76,132.01 61.39,159.56 l 159.58,60.96 30.63,-80.16 -141.74,-54.14 c -26.59,-10.16 -59.76,-22.82 -44.87,-61.81 14.49,-37.89 47.63,-25.23 74.23,-15.06 l 141.73,54.13 30.64,-80.15 -159.59,-60.97" /><path
         id="path72"
         style="fill:#ffffff;fill-opacity:1;fill-rule:nonzero;stroke:none"
         d="m 3577.71,2309.93 7.29,-44.64 c 2.89,-17.71 9.71,-28.06 27.42,-25.17 13.86,2.26 16.98,14.62 14.15,31.95 l -7.28,44.64 z m -102.38,-16.7 8.1,-49.66 c 2.89,-17.7 10.41,-32.29 31.58,-28.83 16.17,2.64 23.44,13.71 20.18,33.72 l -8.67,53.12 z m 195.58,118.84 24.55,-150.49 c 11.81,-72.37 -36.49,-94.16 -64.58,-98.74 -27.71,-4.52 -34.93,6.24 -49.42,24.8 -4.44,-26 -20.3,-52.3 -60.72,-58.9 -55.06,-8.98 -91.31,34.1 -99.22,82.6 l -25.44,155.88 274.83,44.85" /><g
         transform="scale(10)"
         id="g74"><text
           id="text78"
           style="font-variant:normal;font-size:43.25315857px;font-family:HelveticaNeueLTStd;-inkscape-font-specification:HelveticaNeueLTStd-Blk;writing-mode:lr-tb;fill:#ffffff;fill-opacity:1;fill-rule:nonzero;stroke:none"
           transform="matrix(0.30120847,-0.96310141,-0.86056614,-0.26913875,46.5289,151.701)"><tspan
             id="tspan76"
             y="0"
             x="0">F</tspan></text>
<text
           id="text82"
           style="font-variant:normal;font-size:42.48605728px;font-family:HelveticaNeueLTStd;-inkscape-font-specification:HelveticaNeueLTStd-Blk;writing-mode:lr-tb;fill:#ffffff;fill-opacity:1;fill-rule:nonzero;stroke:none"
           transform="matrix(0.52420025,-0.88352097,-0.78945674,-0.46839161,55.1656,123.996)"><tspan
             id="tspan80"
             y="0"
             x="0">A</tspan></text>
<text
           id="text86"
           style="font-variant:normal;font-size:41.45930099px;font-family:HelveticaNeueLTStd;-inkscape-font-specification:HelveticaNeueLTStd-Blk;writing-mode:lr-tb;fill:#ffffff;fill-opacity:1;fill-rule:nonzero;stroke:none"
           transform="matrix(0.73299035,-0.75567018,-0.67521839,-0.65495235,73.8883,93.9109)"><tspan
             id="tspan84"
             y="0"
             x="0">L</tspan></text>
<text
           id="text90"
           style="font-variant:normal;font-size:42.30420685px;font-family:HelveticaNeueLTStd;-inkscape-font-specification:HelveticaNeueLTStd-Blk;writing-mode:lr-tb;fill:#ffffff;fill-opacity:1;fill-rule:nonzero;stroke:none"
           transform="matrix(0.86290068,-0.56558721,-0.50537354,-0.77103277,95.7281,71.607)"><tspan
             id="tspan88"
             y="0"
             x="0">C</tspan></text>
<text
           id="text94"
           style="font-variant:normal;font-size:43.12182236px;font-family:HelveticaNeueLTStd;-inkscape-font-specification:HelveticaNeueLTStd-Blk;writing-mode:lr-tb;fill:#ffffff;fill-opacity:1;fill-rule:nonzero;stroke:none"
           transform="matrix(0.95025263,-0.34859388,-0.31148024,-0.84908728,126.853,51.673)"><tspan
             id="tspan92"
             y="0"
             x="0">O</tspan></text>
<text
           id="text98"
           style="font-variant:normal;font-size:43.63232803px;font-family:HelveticaNeueLTStd;-inkscape-font-specification:HelveticaNeueLTStd-Blk;writing-mode:lr-tb;fill:#ffffff;fill-opacity:1;fill-rule:nonzero;stroke:none"
           transform="matrix(0.99867283,-0.0576385,-0.05150313,-0.89235027,178.687,36.2141)"><tspan
             id="tspan96"
             y="0"
             x="0">S</tspan></text>
<text
           id="text102"
           style="font-variant:normal;font-size:43.57827759px;font-family:HelveticaNeueLTStd;-inkscape-font-specification:HelveticaNeueLTStd-Blk;writing-mode:lr-tb;fill:#ffffff;fill-opacity:1;fill-rule:nonzero;stroke:none"
           transform="matrix(0.99374533,0.12497529,0.11167016,-0.88794957,210.798,34.5352)"><tspan
             id="tspan100"
             y="0"
             x="0">A</tspan></text>
<text
           id="text106"
           style="font-variant:normal;font-size:43.20077515px;font-family:HelveticaNeueLTStd;-inkscape-font-specification:HelveticaNeueLTStd-Blk;writing-mode:lr-tb;fill:#ffffff;fill-opacity:1;fill-rule:nonzero;stroke:none"
           transform="matrix(0.95801962,0.32086404,0.28670264,-0.85602562,245.322,39.1449)"><tspan
             id="tspan104"
             y="0"
             x="0">B</tspan></text>
<text
           id="text110"
           style="font-variant:normal;font-size:42.50670242px;font-family:HelveticaNeueLTStd;-inkscape-font-specification:HelveticaNeueLTStd-Blk;writing-mode:lr-tb;fill:#ffffff;fill-opacity:1;fill-rule:nonzero;stroke:none"
           transform="matrix(0.88582053,0.51931593,0.46402801,-0.79151297,279.154,50.8719)"><tspan
             id="tspan108"
             y="0"
             x="0">A</tspan></text>
<text
           id="text114"
           style="font-variant:normal;font-size:41.54031754px;font-family:HelveticaNeueLTStd;-inkscape-font-specification:HelveticaNeueLTStd-Blk;writing-mode:lr-tb;fill:#ffffff;fill-opacity:1;fill-rule:nonzero;stroke:none"
           transform="matrix(0.76690466,0.7182292,0.64176105,-0.68525595,309.419,68.9461)"><tspan
             id="tspan112"
             y="0"
             x="0">U</tspan></text>
<text
           id="text118"
           style="font-variant:normal;font-size:42.36052704px;font-family:HelveticaNeueLTStd;-inkscape-font-specification:HelveticaNeueLTStd-Blk;writing-mode:lr-tb;fill:#ffffff;fill-opacity:1;fill-rule:nonzero;stroke:none"
           transform="matrix(0.55301883,0.86938168,0.7768232,-0.49414116,336.415,94.793)"><tspan
             id="tspan116"
             y="0"
             x="0">D</tspan></text>
<text
           id="text122"
           style="font-variant:normal;font-size:43.30634689px;font-family:HelveticaNeueLTStd;-inkscape-font-specification:HelveticaNeueLTStd-Blk;writing-mode:lr-tb;fill:#ffffff;fill-opacity:1;fill-rule:nonzero;stroke:none"
           transform="matrix(0.27996797,0.96820445,0.86512059,-0.25016023,356.765,127.833)"><tspan
             id="tspan120"
             y="0"
             x="0">O</tspan></text>
</g></g></g></svg>